<svg width="192" height="192" viewBox="0 0 192 192" fill="none" xmlns="http://www.w3.org/2000/svg">
<rect width="192" height="192" rx="30" fill="url(#paint0_linear_9_117)"/>
<g filter="url(#filter0_d_9_117)">
<path d="M138.375 172.125H53.625C37.0565 172.125 23.625 158.694 23.625 142.125V71.0625H115.125L127.701 62.9693H23.625V49.6946C23.625 37.4599 33.7067 27.6292 45.9375 27.9375V36.4592C45.9375 41.5333 50.0509 45.6467 55.125 45.6467C60.1991 45.6467 64.3125 41.5333 64.3125 36.4592V27.9375L97.914 27.375L128.438 27.9375V35.9905C128.438 41.3235 132.761 45.6467 138.094 45.6467C143.427 45.6467 147.75 41.3235 147.75 35.9905V27.375C159.141 27.375 168.375 36.6091 168.375 48V142.125C168.375 158.694 154.944 172.125 138.375 172.125Z" fill="#F5F5F5"/>
</g>
<g filter="url(#filter1_d_9_117)">
<path d="M86.5 118L66.2659 101.657C63.3506 99.3024 58.9963 100.342 57.4585 103.759C56.5654 105.744 56.8764 108.063 58.2607 109.743L75.001 130.05C80.9759 137.299 92.067 137.334 98.0883 130.124L159.301 56.8308C160.934 54.8751 160.315 51.9074 158.036 50.7679C156.52 50.0102 154.69 50.3037 153.488 51.4974L86.5 118Z" fill="#40A627"/>
</g>
<g filter="url(#filter2_d_9_117)">
<path d="M45 81H37C35.8954 81 35 81.8954 35 83V91C35 92.1046 35.8954 93 37 93H45C46.1046 93 47 92.1046 47 91V83C47 81.8954 46.1046 81 45 81Z" fill="#70C228"/>
</g>
<g filter="url(#filter3_d_9_117)">
<path d="M69 81H61C59.8954 81 59 81.8954 59 83V91C59 92.1046 59.8954 93 61 93H69C70.1046 93 71 92.1046 71 91V83C71 81.8954 70.1046 81 69 81Z" fill="#70C228"/>
</g>
<g filter="url(#filter4_d_9_117)">
<path d="M98 81H90C88.8954 81 88 81.8954 88 83V91C88 92.1046 88.8954 93 90 93H98C99.1046 93 100 92.1046 100 91V83C100 81.8954 99.1046 81 98 81Z" fill="#70C228"/>
</g>
<g filter="url(#filter5_d_9_117)">
<path d="M45 103H37C35.8954 103 35 103.895 35 105V113C35 114.105 35.8954 115 37 115H45C46.1046 115 47 114.105 47 113V105C47 103.895 46.1046 103 45 103Z" fill="#70C228"/>
</g>
<g filter="url(#filter6_d_9_117)">
<path d="M45 125H37C35.8954 125 35 125.895 35 127V135C35 136.105 35.8954 137 37 137H45C46.1046 137 47 136.105 47 135V127C47 125.895 46.1046 125 45 125Z" fill="#70C228"/>
</g>
<g filter="url(#filter7_d_9_117)">
<path d="M45 146H37C35.8954 146 35 146.895 35 148V156C35 157.105 35.8954 158 37 158H45C46.1046 158 47 157.105 47 156V148C47 146.895 46.1046 146 45 146Z" fill="#70C228"/>
</g>
<g filter="url(#filter8_d_9_117)">
<path d="M69 146H61C59.8954 146 59 146.895 59 148V156C59 157.105 59.8954 158 61 158H69C70.1046 158 71 157.105 71 156V148C71 146.895 70.1046 146 69 146Z" fill="#70C228"/>
</g>
<g filter="url(#filter9_d_9_117)">
<path d="M98 146H90C88.8954 146 88 146.895 88 148V156C88 157.105 88.8954 158 90 158H98C99.1046 158 100 157.105 100 156V148C100 146.895 99.1046 146 98 146Z" fill="#70C228"/>
</g>
<g filter="url(#filter10_d_9_117)">
<path d="M125 146H117C115.895 146 115 146.895 115 148V156C115 157.105 115.895 158 117 158H125C126.105 158 127 157.105 127 156V148C127 146.895 126.105 146 125 146Z" fill="#70C228"/>
</g>
<g filter="url(#filter11_d_9_117)">
<path d="M125 125H117C115.895 125 115 125.895 115 127V135C115 136.105 115.895 137 117 137H125C126.105 137 127 136.105 127 135V127C127 125.895 126.105 125 125 125Z" fill="#70C228"/>
</g>
<g filter="url(#filter12_d_9_117)">
<path d="M153 146H145C143.895 146 143 146.895 143 148V156C143 157.105 143.895 158 145 158H153C154.105 158 155 157.105 155 156V148C155 146.895 154.105 146 153 146Z" fill="#70C228"/>
</g>
<g filter="url(#filter13_d_9_117)">
<path d="M153 125H145C143.895 125 143 125.895 143 127V135C143 136.105 143.895 137 145 137H153C154.105 137 155 136.105 155 135V127C155 125.895 154.105 125 153 125Z" fill="#70C228"/>
</g>
<g filter="url(#filter14_d_9_117)">
<path d="M153 104H145C143.895 104 143 104.895 143 106V114C143 115.105 143.895 116 145 116H153C154.105 116 155 115.105 155 114V106C155 104.895 154.105 104 153 104Z" fill="#70C228"/>
</g>
<g filter="url(#filter15_d_9_117)">
<path d="M153 81H145C143.895 81 143 81.8954 143 83V91C143 92.1046 143.895 93 145 93H153C154.105 93 155 92.1046 155 91V83C155 81.8954 154.105 81 153 81Z" fill="#70C228"/>
</g>
<g filter="url(#filter16_d_9_117)">
<path d="M48.1875 36.1875V25.6875C48.1875 21.856 51.2935 18.75 55.125 18.75C58.9565 18.75 62.0625 21.856 62.0625 25.6875V36.1875C62.0625 40.019 58.9565 43.125 55.125 43.125C51.2935 43.125 48.1875 40.019 48.1875 36.1875Z" fill="#F5F5F5"/>
</g>
<g filter="url(#filter17_d_9_117)">
<path d="M130.5 35.625V26.25C130.5 22.1079 133.858 18.75 138 18.75C142.142 18.75 145.5 22.1079 145.5 26.25V35.625C145.5 39.7671 142.142 43.125 138 43.125C133.858 43.125 130.5 39.7671 130.5 35.625Z" fill="#F5F5F5"/>
</g>
<defs>
<filter id="filter0_d_9_117" x="19.625" y="27.375" width="152.75" height="152.75" filterUnits="userSpaceOnUse" color-interpolation-filters="sRGB">
<feFlood flood-opacity="0" result="BackgroundImageFix"/>
<feColorMatrix in="SourceAlpha" type="matrix" values="0 0 0 0 0 0 0 0 0 0 0 0 0 0 0 0 0 0 127 0" result="hardAlpha"/>
<feOffset dy="4"/>
<feGaussianBlur stdDeviation="2"/>
<feComposite in2="hardAlpha" operator="out"/>
<feColorMatrix type="matrix" values="0 0 0 0 0 0 0 0 0 0 0 0 0 0 0 0 0 0 0.25 0"/>
<feBlend mode="normal" in2="BackgroundImageFix" result="effect1_dropShadow_9_117"/>
<feBlend mode="normal" in="SourceGraphic" in2="effect1_dropShadow_9_117" result="shape"/>
</filter>
<filter id="filter1_d_9_117" x="52.9548" y="50.3509" width="111.265" height="93.1584" filterUnits="userSpaceOnUse" color-interpolation-filters="sRGB">
<feFlood flood-opacity="0" result="BackgroundImageFix"/>
<feColorMatrix in="SourceAlpha" type="matrix" values="0 0 0 0 0 0 0 0 0 0 0 0 0 0 0 0 0 0 127 0" result="hardAlpha"/>
<feOffset dy="4"/>
<feGaussianBlur stdDeviation="2"/>
<feComposite in2="hardAlpha" operator="out"/>
<feColorMatrix type="matrix" values="0 0 0 0 0 0 0 0 0 0 0 0 0 0 0 0 0 0 0.25 0"/>
<feBlend mode="normal" in2="BackgroundImageFix" result="effect1_dropShadow_9_117"/>
<feBlend mode="normal" in="SourceGraphic" in2="effect1_dropShadow_9_117" result="shape"/>
</filter>
<filter id="filter2_d_9_117" x="31" y="81" width="20" height="20" filterUnits="userSpaceOnUse" color-interpolation-filters="sRGB">
<feFlood flood-opacity="0" result="BackgroundImageFix"/>
<feColorMatrix in="SourceAlpha" type="matrix" values="0 0 0 0 0 0 0 0 0 0 0 0 0 0 0 0 0 0 127 0" result="hardAlpha"/>
<feOffset dy="4"/>
<feGaussianBlur stdDeviation="2"/>
<feComposite in2="hardAlpha" operator="out"/>
<feColorMatrix type="matrix" values="0 0 0 0 0 0 0 0 0 0 0 0 0 0 0 0 0 0 0.25 0"/>
<feBlend mode="normal" in2="BackgroundImageFix" result="effect1_dropShadow_9_117"/>
<feBlend mode="normal" in="SourceGraphic" in2="effect1_dropShadow_9_117" result="shape"/>
</filter>
<filter id="filter3_d_9_117" x="55" y="81" width="20" height="20" filterUnits="userSpaceOnUse" color-interpolation-filters="sRGB">
<feFlood flood-opacity="0" result="BackgroundImageFix"/>
<feColorMatrix in="SourceAlpha" type="matrix" values="0 0 0 0 0 0 0 0 0 0 0 0 0 0 0 0 0 0 127 0" result="hardAlpha"/>
<feOffset dy="4"/>
<feGaussianBlur stdDeviation="2"/>
<feComposite in2="hardAlpha" operator="out"/>
<feColorMatrix type="matrix" values="0 0 0 0 0 0 0 0 0 0 0 0 0 0 0 0 0 0 0.25 0"/>
<feBlend mode="normal" in2="BackgroundImageFix" result="effect1_dropShadow_9_117"/>
<feBlend mode="normal" in="SourceGraphic" in2="effect1_dropShadow_9_117" result="shape"/>
</filter>
<filter id="filter4_d_9_117" x="84" y="81" width="20" height="20" filterUnits="userSpaceOnUse" color-interpolation-filters="sRGB">
<feFlood flood-opacity="0" result="BackgroundImageFix"/>
<feColorMatrix in="SourceAlpha" type="matrix" values="0 0 0 0 0 0 0 0 0 0 0 0 0 0 0 0 0 0 127 0" result="hardAlpha"/>
<feOffset dy="4"/>
<feGaussianBlur stdDeviation="2"/>
<feComposite in2="hardAlpha" operator="out"/>
<feColorMatrix type="matrix" values="0 0 0 0 0 0 0 0 0 0 0 0 0 0 0 0 0 0 0.25 0"/>
<feBlend mode="normal" in2="BackgroundImageFix" result="effect1_dropShadow_9_117"/>
<feBlend mode="normal" in="SourceGraphic" in2="effect1_dropShadow_9_117" result="shape"/>
</filter>
<filter id="filter5_d_9_117" x="31" y="103" width="20" height="20" filterUnits="userSpaceOnUse" color-interpolation-filters="sRGB">
<feFlood flood-opacity="0" result="BackgroundImageFix"/>
<feColorMatrix in="SourceAlpha" type="matrix" values="0 0 0 0 0 0 0 0 0 0 0 0 0 0 0 0 0 0 127 0" result="hardAlpha"/>
<feOffset dy="4"/>
<feGaussianBlur stdDeviation="2"/>
<feComposite in2="hardAlpha" operator="out"/>
<feColorMatrix type="matrix" values="0 0 0 0 0 0 0 0 0 0 0 0 0 0 0 0 0 0 0.25 0"/>
<feBlend mode="normal" in2="BackgroundImageFix" result="effect1_dropShadow_9_117"/>
<feBlend mode="normal" in="SourceGraphic" in2="effect1_dropShadow_9_117" result="shape"/>
</filter>
<filter id="filter6_d_9_117" x="31" y="125" width="20" height="20" filterUnits="userSpaceOnUse" color-interpolation-filters="sRGB">
<feFlood flood-opacity="0" result="BackgroundImageFix"/>
<feColorMatrix in="SourceAlpha" type="matrix" values="0 0 0 0 0 0 0 0 0 0 0 0 0 0 0 0 0 0 127 0" result="hardAlpha"/>
<feOffset dy="4"/>
<feGaussianBlur stdDeviation="2"/>
<feComposite in2="hardAlpha" operator="out"/>
<feColorMatrix type="matrix" values="0 0 0 0 0 0 0 0 0 0 0 0 0 0 0 0 0 0 0.25 0"/>
<feBlend mode="normal" in2="BackgroundImageFix" result="effect1_dropShadow_9_117"/>
<feBlend mode="normal" in="SourceGraphic" in2="effect1_dropShadow_9_117" result="shape"/>
</filter>
<filter id="filter7_d_9_117" x="31" y="146" width="20" height="20" filterUnits="userSpaceOnUse" color-interpolation-filters="sRGB">
<feFlood flood-opacity="0" result="BackgroundImageFix"/>
<feColorMatrix in="SourceAlpha" type="matrix" values="0 0 0 0 0 0 0 0 0 0 0 0 0 0 0 0 0 0 127 0" result="hardAlpha"/>
<feOffset dy="4"/>
<feGaussianBlur stdDeviation="2"/>
<feComposite in2="hardAlpha" operator="out"/>
<feColorMatrix type="matrix" values="0 0 0 0 0 0 0 0 0 0 0 0 0 0 0 0 0 0 0.25 0"/>
<feBlend mode="normal" in2="BackgroundImageFix" result="effect1_dropShadow_9_117"/>
<feBlend mode="normal" in="SourceGraphic" in2="effect1_dropShadow_9_117" result="shape"/>
</filter>
<filter id="filter8_d_9_117" x="55" y="146" width="20" height="20" filterUnits="userSpaceOnUse" color-interpolation-filters="sRGB">
<feFlood flood-opacity="0" result="BackgroundImageFix"/>
<feColorMatrix in="SourceAlpha" type="matrix" values="0 0 0 0 0 0 0 0 0 0 0 0 0 0 0 0 0 0 127 0" result="hardAlpha"/>
<feOffset dy="4"/>
<feGaussianBlur stdDeviation="2"/>
<feComposite in2="hardAlpha" operator="out"/>
<feColorMatrix type="matrix" values="0 0 0 0 0 0 0 0 0 0 0 0 0 0 0 0 0 0 0.25 0"/>
<feBlend mode="normal" in2="BackgroundImageFix" result="effect1_dropShadow_9_117"/>
<feBlend mode="normal" in="SourceGraphic" in2="effect1_dropShadow_9_117" result="shape"/>
</filter>
<filter id="filter9_d_9_117" x="84" y="146" width="20" height="20" filterUnits="userSpaceOnUse" color-interpolation-filters="sRGB">
<feFlood flood-opacity="0" result="BackgroundImageFix"/>
<feColorMatrix in="SourceAlpha" type="matrix" values="0 0 0 0 0 0 0 0 0 0 0 0 0 0 0 0 0 0 127 0" result="hardAlpha"/>
<feOffset dy="4"/>
<feGaussianBlur stdDeviation="2"/>
<feComposite in2="hardAlpha" operator="out"/>
<feColorMatrix type="matrix" values="0 0 0 0 0 0 0 0 0 0 0 0 0 0 0 0 0 0 0.25 0"/>
<feBlend mode="normal" in2="BackgroundImageFix" result="effect1_dropShadow_9_117"/>
<feBlend mode="normal" in="SourceGraphic" in2="effect1_dropShadow_9_117" result="shape"/>
</filter>
<filter id="filter10_d_9_117" x="111" y="146" width="20" height="20" filterUnits="userSpaceOnUse" color-interpolation-filters="sRGB">
<feFlood flood-opacity="0" result="BackgroundImageFix"/>
<feColorMatrix in="SourceAlpha" type="matrix" values="0 0 0 0 0 0 0 0 0 0 0 0 0 0 0 0 0 0 127 0" result="hardAlpha"/>
<feOffset dy="4"/>
<feGaussianBlur stdDeviation="2"/>
<feComposite in2="hardAlpha" operator="out"/>
<feColorMatrix type="matrix" values="0 0 0 0 0 0 0 0 0 0 0 0 0 0 0 0 0 0 0.25 0"/>
<feBlend mode="normal" in2="BackgroundImageFix" result="effect1_dropShadow_9_117"/>
<feBlend mode="normal" in="SourceGraphic" in2="effect1_dropShadow_9_117" result="shape"/>
</filter>
<filter id="filter11_d_9_117" x="111" y="125" width="20" height="20" filterUnits="userSpaceOnUse" color-interpolation-filters="sRGB">
<feFlood flood-opacity="0" result="BackgroundImageFix"/>
<feColorMatrix in="SourceAlpha" type="matrix" values="0 0 0 0 0 0 0 0 0 0 0 0 0 0 0 0 0 0 127 0" result="hardAlpha"/>
<feOffset dy="4"/>
<feGaussianBlur stdDeviation="2"/>
<feComposite in2="hardAlpha" operator="out"/>
<feColorMatrix type="matrix" values="0 0 0 0 0 0 0 0 0 0 0 0 0 0 0 0 0 0 0.25 0"/>
<feBlend mode="normal" in2="BackgroundImageFix" result="effect1_dropShadow_9_117"/>
<feBlend mode="normal" in="SourceGraphic" in2="effect1_dropShadow_9_117" result="shape"/>
</filter>
<filter id="filter12_d_9_117" x="139" y="146" width="20" height="20" filterUnits="userSpaceOnUse" color-interpolation-filters="sRGB">
<feFlood flood-opacity="0" result="BackgroundImageFix"/>
<feColorMatrix in="SourceAlpha" type="matrix" values="0 0 0 0 0 0 0 0 0 0 0 0 0 0 0 0 0 0 127 0" result="hardAlpha"/>
<feOffset dy="4"/>
<feGaussianBlur stdDeviation="2"/>
<feComposite in2="hardAlpha" operator="out"/>
<feColorMatrix type="matrix" values="0 0 0 0 0 0 0 0 0 0 0 0 0 0 0 0 0 0 0.25 0"/>
<feBlend mode="normal" in2="BackgroundImageFix" result="effect1_dropShadow_9_117"/>
<feBlend mode="normal" in="SourceGraphic" in2="effect1_dropShadow_9_117" result="shape"/>
</filter>
<filter id="filter13_d_9_117" x="139" y="125" width="20" height="20" filterUnits="userSpaceOnUse" color-interpolation-filters="sRGB">
<feFlood flood-opacity="0" result="BackgroundImageFix"/>
<feColorMatrix in="SourceAlpha" type="matrix" values="0 0 0 0 0 0 0 0 0 0 0 0 0 0 0 0 0 0 127 0" result="hardAlpha"/>
<feOffset dy="4"/>
<feGaussianBlur stdDeviation="2"/>
<feComposite in2="hardAlpha" operator="out"/>
<feColorMatrix type="matrix" values="0 0 0 0 0 0 0 0 0 0 0 0 0 0 0 0 0 0 0.25 0"/>
<feBlend mode="normal" in2="BackgroundImageFix" result="effect1_dropShadow_9_117"/>
<feBlend mode="normal" in="SourceGraphic" in2="effect1_dropShadow_9_117" result="shape"/>
</filter>
<filter id="filter14_d_9_117" x="139" y="104" width="20" height="20" filterUnits="userSpaceOnUse" color-interpolation-filters="sRGB">
<feFlood flood-opacity="0" result="BackgroundImageFix"/>
<feColorMatrix in="SourceAlpha" type="matrix" values="0 0 0 0 0 0 0 0 0 0 0 0 0 0 0 0 0 0 127 0" result="hardAlpha"/>
<feOffset dy="4"/>
<feGaussianBlur stdDeviation="2"/>
<feComposite in2="hardAlpha" operator="out"/>
<feColorMatrix type="matrix" values="0 0 0 0 0 0 0 0 0 0 0 0 0 0 0 0 0 0 0.25 0"/>
<feBlend mode="normal" in2="BackgroundImageFix" result="effect1_dropShadow_9_117"/>
<feBlend mode="normal" in="SourceGraphic" in2="effect1_dropShadow_9_117" result="shape"/>
</filter>
<filter id="filter15_d_9_117" x="139" y="81" width="20" height="20" filterUnits="userSpaceOnUse" color-interpolation-filters="sRGB">
<feFlood flood-opacity="0" result="BackgroundImageFix"/>
<feColorMatrix in="SourceAlpha" type="matrix" values="0 0 0 0 0 0 0 0 0 0 0 0 0 0 0 0 0 0 127 0" result="hardAlpha"/>
<feOffset dy="4"/>
<feGaussianBlur stdDeviation="2"/>
<feComposite in2="hardAlpha" operator="out"/>
<feColorMatrix type="matrix" values="0 0 0 0 0 0 0 0 0 0 0 0 0 0 0 0 0 0 0.25 0"/>
<feBlend mode="normal" in2="BackgroundImageFix" result="effect1_dropShadow_9_117"/>
<feBlend mode="normal" in="SourceGraphic" in2="effect1_dropShadow_9_117" result="shape"/>
</filter>
<filter id="filter16_d_9_117" x="44.1875" y="18.75" width="21.875" height="32.375" filterUnits="userSpaceOnUse" color-interpolation-filters="sRGB">
<feFlood flood-opacity="0" result="BackgroundImageFix"/>
<feColorMatrix in="SourceAlpha" type="matrix" values="0 0 0 0 0 0 0 0 0 0 0 0 0 0 0 0 0 0 127 0" result="hardAlpha"/>
<feOffset dy="4"/>
<feGaussianBlur stdDeviation="2"/>
<feComposite in2="hardAlpha" operator="out"/>
<feColorMatrix type="matrix" values="0 0 0 0 0 0 0 0 0 0 0 0 0 0 0 0 0 0 0.25 0"/>
<feBlend mode="normal" in2="BackgroundImageFix" result="effect1_dropShadow_9_117"/>
<feBlend mode="normal" in="SourceGraphic" in2="effect1_dropShadow_9_117" result="shape"/>
</filter>
<filter id="filter17_d_9_117" x="126.5" y="18.75" width="23" height="32.375" filterUnits="userSpaceOnUse" color-interpolation-filters="sRGB">
<feFlood flood-opacity="0" result="BackgroundImageFix"/>
<feColorMatrix in="SourceAlpha" type="matrix" values="0 0 0 0 0 0 0 0 0 0 0 0 0 0 0 0 0 0 127 0" result="hardAlpha"/>
<feOffset dy="4"/>
<feGaussianBlur stdDeviation="2"/>
<feComposite in2="hardAlpha" operator="out"/>
<feColorMatrix type="matrix" values="0 0 0 0 0 0 0 0 0 0 0 0 0 0 0 0 0 0 0.25 0"/>
<feBlend mode="normal" in2="BackgroundImageFix" result="effect1_dropShadow_9_117"/>
<feBlend mode="normal" in="SourceGraphic" in2="effect1_dropShadow_9_117" result="shape"/>
</filter>
<linearGradient id="paint0_linear_9_117" x1="192" y1="188.554" x2="1.26286e-05" y2="0.625665" gradientUnits="userSpaceOnUse">
<stop stop-color="#99DD23"/>
<stop offset="0.46848" stop-color="#4BAA26"/>
<stop offset="0.995907" stop-color="#08FF5E"/>
</linearGradient>
</defs>
</svg>
